<svg width="32" height="32" viewBox="0 0 32 32" fill="none" xmlns="http://www.w3.org/2000/svg">
<path d="M0 8C0 3.58172 3.58172 0 8 0H24C28.4183 0 32 3.58172 32 8V24C32 28.4183 28.4183 32 24 32H8C3.58172 32 0 28.4183 0 24V8Z" fill="#D14748"/>
<path d="M16.4078 6.99999C17.178 7.00223 17.9174 7.30275 18.4707 7.83848C19.0241 8.3742 19.3485 9.10347 19.3757 9.8732L19.3774 9.98716L23.1328 9.99821C23.2984 9.99923 23.4573 10.0637 23.5769 10.1783C23.6964 10.2929 23.7675 10.449 23.7755 10.6144C23.7835 10.7798 23.7278 10.942 23.6199 11.0676C23.512 11.1932 23.36 11.2727 23.1953 11.2897L23.129 11.2932L22.5638 11.2915L21.6473 22.9798C21.6039 23.5333 21.3529 24.0499 20.9448 24.4262C20.5366 24.8025 20.0013 25.0107 19.4461 25.009L13.2635 24.9908C12.7083 24.9892 12.1742 24.7779 11.7683 24.3992C11.3623 24.0205 11.1144 23.5024 11.0742 22.9487L10.226 11.2552L9.66139 11.2535C9.5011 11.2531 9.34665 11.1933 9.22794 11.0856C9.10922 10.9779 9.03468 10.83 9.01873 10.6705L9.01582 10.6042C9.01681 10.269 9.27247 9.99368 9.59889 9.96201L9.6652 9.95858L13.4206 9.96963C13.4229 9.17971 13.7389 8.42306 14.2991 7.86615C14.8593 7.30923 15.6178 6.99767 16.4078 6.99999ZM21.2653 11.2877L11.5251 11.259L12.3664 22.8551C12.3829 23.083 12.4849 23.2962 12.652 23.4521C12.819 23.608 13.0388 23.6951 13.2673 23.6959L19.4499 23.7141C19.6785 23.7147 19.8989 23.629 20.0669 23.4741C20.235 23.3192 20.3384 23.1065 20.3563 22.8786L21.2658 11.2877L21.2653 11.2877ZM18.0706 13.9977C18.4058 13.9987 18.6811 14.2544 18.7133 14.5808L18.7162 14.6471L18.6994 20.3449C18.6997 20.5114 18.6358 20.6716 18.5211 20.7923C18.4063 20.9129 18.2495 20.9847 18.0832 20.9928C17.9169 21.0008 17.7539 20.9445 17.6281 20.8355C17.5022 20.7265 17.4232 20.5732 17.4074 20.4074L17.4045 20.3411L17.4212 14.6433C17.4223 14.2859 17.7132 13.9967 18.0706 13.9977ZM14.7037 13.9878C15.0389 13.9888 15.3142 14.2445 15.3464 14.5709L15.3493 14.6372L15.3325 20.335C15.3328 20.5015 15.269 20.6617 15.1542 20.7824C15.0395 20.903 14.8826 20.9748 14.7163 20.9828C14.55 20.9909 14.387 20.9346 14.2612 20.8256C14.1353 20.7166 14.0563 20.5633 14.0405 20.3975L14.0376 20.3312L14.0543 14.6334C14.0554 14.276 14.3463 13.9868 14.7037 13.9878ZM16.4039 8.29495C15.9739 8.29366 15.5598 8.45696 15.2463 8.75135C14.9329 9.04574 14.744 9.44891 14.7184 9.87814L14.7155 9.97344L18.0824 9.98335C18.0837 9.53687 17.9076 9.10816 17.5929 8.79152C17.2781 8.47489 16.8504 8.29626 16.4039 8.29495Z" fill="white"/>
</svg>
