<svg width="11" height="7" viewBox="0 0 11 7" fill="none" xmlns="http://www.w3.org/2000/svg">
<path d="M8.78743 0.684576L5.4968 4.00295L2.20255 0.684576C2.20251 0.684538 2.20247 0.6845 2.20243 0.684461C2.0573 0.537761 1.85912 0.45392 1.65171 0.450139C1.44426 0.446358 1.24303 0.522953 1.09245 0.664243C0.941729 0.805659 0.85407 1.00046 0.850121 1.20607C0.84617 1.4117 0.926296 1.60964 1.07157 1.75655L1.11561 1.80108L1.1195 1.80108L5.39038 6.10565L5.49686 6.21297L5.60334 6.10565L9.91823 1.75673L9.9184 1.75655C10.0637 1.60964 10.1438 1.4117 10.1399 1.20607C10.1359 1.00046 10.0482 0.80566 9.89753 0.664244C9.74694 0.522954 9.54572 0.446359 9.33826 0.45014C9.13087 0.45392 8.9327 0.537749 8.78757 0.68443C8.78752 0.684479 8.78747 0.684527 8.78743 0.684576Z" fill="#4F4F4F" stroke="#4F4F4F" stroke-width="0.3"/>
</svg>
