<svg width="32" height="32" viewBox="0 0 32 32" fill="none" xmlns="http://www.w3.org/2000/svg">
<g opacity="0.8">
<path d="M0 8C0 3.58172 3.58172 0 8 0H24C28.4183 0 32 3.58172 32 8V24C32 28.4183 28.4183 32 24 32H8C3.58172 32 0 28.4183 0 24V8Z" fill="#828282"/>
<path d="M24.5719 11.0792L20.4821 6.98946C20.3461 6.85348 20.1847 6.74561 20.0071 6.67202C19.8294 6.59842 19.639 6.56055 19.4467 6.56055C19.2544 6.56055 19.064 6.59842 18.8863 6.67202C18.7087 6.74561 18.5472 6.85348 18.4113 6.98946L16.0005 9.40028V9.40037L16.0003 9.40046L7.42896 17.9719C7.29255 18.1075 7.1844 18.2689 7.11077 18.4466C7.03714 18.6243 6.99949 18.8149 7.00001 19.0072V23.097C7.00044 23.4852 7.15486 23.8574 7.42938 24.1319C7.7039 24.4065 8.0761 24.5609 8.46433 24.5613H12.8573C12.9534 24.5613 13.0486 24.5424 13.1375 24.5056C13.2263 24.4688 13.307 24.4149 13.375 24.3469L24.5719 13.1499C24.846 12.8751 25 12.5028 25 12.1146C25 11.7264 24.846 11.354 24.5719 11.0792ZM12.5541 23.097H8.46433V19.0072L16.5181 10.9535L20.6078 15.0432L12.5541 23.097ZM21.6432 14.0079L17.5535 9.9181L19.4467 8.02482L23.5365 12.1146L21.6432 14.0079Z" fill="white"/>
</g>
</svg>
