<svg width="32" height="32" viewBox="0 0 32 32" fill="none" xmlns="http://www.w3.org/2000/svg">
<g opacity="0.8">
<path d="M0 8C0 3.58172 3.58172 0 8 0H24C28.4183 0 32 3.58172 32 8V24C32 28.4183 28.4183 32 24 32H8C3.58172 32 0 28.4183 0 24V8Z" fill="#828282"/>
<path d="M25.9603 16.1069C25.1762 14.0786 23.8149 12.3245 22.0447 11.0614C20.2745 9.79839 18.1731 9.08172 16 9C13.8269 9.08172 11.7255 9.79839 9.9553 11.0614C8.18512 12.3245 6.82385 14.0786 6.03972 16.1069C5.98676 16.2533 5.98676 16.4137 6.03972 16.5602C6.82385 18.5885 8.18512 20.3426 9.9553 21.6056C11.7255 22.8687 13.8269 23.5854 16 23.6671C18.1731 23.5854 20.2745 22.8687 22.0447 21.6056C23.8149 20.3426 25.1762 18.5885 25.9603 16.5602C26.0132 16.4137 26.0132 16.2533 25.9603 16.1069ZM16 22.3337C12.4666 22.3337 8.73313 19.7136 7.37976 16.3335C8.73313 12.9534 12.4666 10.3334 16 10.3334C19.5334 10.3334 23.2669 12.9534 24.6202 16.3335C23.2669 19.7136 19.5334 22.3337 16 22.3337Z" fill="white"/>
<path d="M16.0001 12.3335C15.209 12.3335 14.4356 12.5681 13.7778 13.0076C13.12 13.4472 12.6073 14.0719 12.3045 14.8028C12.0017 15.5338 11.9225 16.338 12.0769 17.114C12.2312 17.8899 12.6122 18.6027 13.1716 19.1621C13.731 19.7215 14.4438 20.1025 15.2197 20.2569C15.9957 20.4112 16.8 20.332 17.5309 20.0292C18.2618 19.7265 18.8865 19.2138 19.3261 18.556C19.7656 17.8981 20.0002 17.1248 20.0002 16.3336C20.0002 15.2727 19.5788 14.2553 18.8286 13.5051C18.0785 12.7549 17.061 12.3335 16.0001 12.3335ZM16.0001 19.0004C15.4727 19.0004 14.9571 18.8439 14.5186 18.5509C14.08 18.2579 13.7382 17.8414 13.5364 17.3541C13.3345 16.8668 13.2817 16.3307 13.3846 15.8134C13.4875 15.2961 13.7415 14.8209 14.1144 14.4479C14.4874 14.075 14.9626 13.821 15.4799 13.7181C15.9972 13.6152 16.5333 13.668 17.0206 13.8699C17.5079 14.0717 17.9244 14.4135 18.2174 14.852C18.5105 15.2906 18.6669 15.8062 18.6669 16.3336C18.6669 17.0409 18.3859 17.7192 17.8858 18.2193C17.3857 18.7194 16.7074 19.0004 16.0001 19.0004Z" fill="white"/>
</g>
</svg>
